<?xml version="1.0" encoding="UTF-8" standalone="no"?>
<!DOCTYPE svg PUBLIC "-//W3C//DTD SVG 1.1//EN" "http://www.w3.org/Graphics/SVG/1.1/DTD/svg11.dtd">
<svg width="100%" height="100%" viewBox="0 0 1570 268" version="1.1" xmlns="http://www.w3.org/2000/svg" xmlns:xlink="http://www.w3.org/1999/xlink" xml:space="preserve" xmlns:serif="http://www.serif.com/" style="fill-rule:evenodd;clip-rule:evenodd;stroke-linejoin:round;stroke-miterlimit:2;">
    <g id="g70" transform="matrix(1,0,0,1,658.542,-20)">
        <g id="path14" transform="matrix(1,0,0,1.05017,-6,6.52775)">
            <path d="M910.454,216.93C908.472,216.93 906.849,216.597 905.583,215.935C904.597,214.231 904.101,212.144 904.101,209.664C904.101,207.189 904.597,205.102 905.583,203.397C906.849,202.79 908.472,202.491 910.454,202.491C912.433,202.491 914.058,202.79 915.319,203.397C916.256,204.88 916.721,206.971 916.721,209.664C916.721,212.361 916.255,214.452 915.319,215.935C914.058,216.597 912.433,216.93 910.454,216.93Z" style="fill:rgb(179,179,179);fill-rule:nonzero;"/>
        </g>
        <g id="path16" transform="matrix(1,0,0,1.05017,-6,6.52775)">
            <path d="M892.714,177.074L891.969,177.074C888.891,177.074 886.583,177.395 885.042,178.024C883.499,178.66 882.73,180.007 882.73,182.067C882.73,184.132 883.736,185.589 885.742,186.443C887.753,187.297 890.956,187.718 895.356,187.718C899.754,187.718 902.878,187.102 904.718,185.864C906.562,184.627 907.481,182.717 907.481,180.132C907.481,177.548 906.298,174.52 903.934,171.056C904.485,170.063 905.46,169.104 906.862,168.17C908.265,167.232 909.573,166.627 910.783,166.352C912.708,168.223 914.249,170.588 915.403,173.45C916.559,176.308 917.136,179.249 917.136,182.277C917.136,188.051 915.184,192.492 911.278,195.602C907.376,198.71 901.914,200.26 894.902,200.26C887.886,200.26 882.58,198.478 878.975,194.898C875.375,191.326 873.573,187.103 873.573,182.235C873.573,177.369 874.837,173.45 877.368,170.479C879.901,167.508 883.141,166.022 887.101,166.022C889.083,166.022 890.58,166.562 891.599,167.631C892.619,168.702 893.125,170.221 893.125,172.168C893.126,174.124 892.989,175.76 892.714,177.074Z" style="fill:rgb(179,179,179);fill-rule:nonzero;"/>
        </g>
        <g id="path18" transform="matrix(1,0,0,1.05017,-6,6.52775)">
            <path d="M878.36,134.174C882.317,130.213 887.972,128.233 895.313,128.233C902.657,128.233 908.305,130.213 912.266,134.174C915.51,137.423 917.136,141.738 917.136,147.13C917.136,152.523 915.51,156.834 912.266,160.082C908.305,164.044 902.657,166.021 895.313,166.021C887.972,166.021 882.317,164.043 878.36,160.082C875.171,156.834 873.573,152.522 873.573,147.13C873.573,141.738 875.171,137.423 878.36,134.174ZM886.032,152.118C888.231,152.974 891.34,153.397 895.356,153.397C899.368,153.397 902.462,152.974 904.636,152.118C906.806,151.264 907.893,149.606 907.893,147.13C907.893,144.656 906.806,142.99 904.636,142.139C902.462,141.283 899.367,140.858 895.356,140.858C891.339,140.858 888.231,141.283 886.032,142.139C883.832,142.991 882.73,144.657 882.73,147.13C882.73,149.606 883.832,151.265 886.032,152.118Z" style="fill:rgb(179,179,179);fill-rule:nonzero;"/>
        </g>
        <g id="path20" transform="matrix(1,0,0,1.05017,-6,6.52775)">
            <path d="M890.981,103.238C887.019,103.238 885.042,104.531 885.042,107.115C885.094,108.986 886.142,110.967 888.175,113.054L915.897,113.054C916.226,114.761 916.393,116.782 916.393,119.119C916.393,121.46 916.226,123.534 915.897,125.347L874.809,125.347L874.234,124.771L874.234,120.15C874.234,116.742 875.968,114.541 879.431,113.55C875.856,109.591 874.07,105.794 874.07,102.167C874.07,97.708 875.996,94.491 879.845,92.513C875.995,88.277 874.07,84.206 874.07,80.3C874.07,76.398 875.28,73.508 877.701,71.64C880.119,69.769 883.281,68.831 887.186,68.831L905.749,68.831C909.158,68.831 911.884,68.173 913.919,66.852C915.679,68.997 916.56,71.404 916.56,74.072C916.56,76.738 915.925,78.582 914.664,79.597C913.394,80.618 911.473,81.123 908.886,81.123L890.899,81.123C886.994,81.123 885.044,82.477 885.044,85.166C885.044,86.873 886.114,88.799 888.259,90.943L915.899,90.943C916.228,92.705 916.395,94.736 916.395,97.048C916.395,99.357 916.228,101.419 915.899,103.236L890.981,103.236L890.981,103.238Z" style="fill:rgb(179,179,179);fill-rule:nonzero;"/>
        </g>
        <g id="g68" transform="matrix(1,0,0,1,-6,14)">
            <g id="g62">
                <g id="g34">
                    <clipPath id="_clip1">
                        <path id="rect30" d="M524,64L524,6L541.028,6L577,45.425L577,64"/>
                    </clipPath>
                    <g clip-path="url(#_clip1)">
                        <rect x="429" y="6" width="218" height="38" style="fill:rgb(240,160,160);fill-rule:nonzero;"/>
                    </g>
                    <clipPath id="_clip2">
                        <path id="rect32" d="M524,64L524,6L541.028,6L577,45.425L577,64"/>
                    </clipPath>
                    <g clip-path="url(#_clip2)">
                        <rect x="429" y="44" width="218" height="31" style="fill:rgb(231,123,123);fill-rule:nonzero;"/>
                    </g>
                </g>
                <g id="g60">
                    <g id="g58">
                        <clipPath id="_clip3">
                            <path d="M577,257.213C577,267.458 566.745,274 556.499,274L387.882,274C377.623,274 369,267.458 369,257.213L369,28.263C369,18.019 377.623,6 387.882,6L515,6L515,73L577,73L577,257.213Z"/>
                        </clipPath>
                        <g clip-path="url(#_clip3)">
                            <rect id="rect42" x="368" y="6" width="212" height="33" style="fill:rgb(240,160,160);fill-rule:nonzero;"/>
                            <rect id="rect44" x="368" y="39" width="212" height="33" style="fill:rgb(231,123,123);fill-rule:nonzero;"/>
                            <rect id="rect46" x="368" y="72" width="212" height="32" style="fill:rgb(240,83,80);fill-rule:nonzero;"/>
                            <rect id="rect48" x="368" y="104" width="212" height="36" style="fill:rgb(244,67,54);fill-rule:nonzero;"/>
                            <rect id="rect50" x="368" y="140" width="212" height="36" style="fill:rgb(229,56,53);fill-rule:nonzero;"/>
                            <rect id="rect52" x="368" y="175" width="212" height="35" style="fill:rgb(211,47,47);fill-rule:nonzero;"/>
                            <rect id="rect54" x="368" y="210" width="212" height="36" style="fill:rgb(199,39,39);fill-rule:nonzero;"/>
                            <rect id="rect56" x="368" y="246" width="212" height="31" style="fill:rgb(183,28,28);fill-rule:nonzero;"/>
                        </g>
                    </g>
                </g>
            </g>
            <g id="g66" transform="matrix(1,0,0,1.01685,0,-3.68579)">
                <path id="path64" d="M417.316,184.82L475.975,132.131C478.956,129.434 481.944,126.375 484.924,122.968C487.915,119.555 489.406,115.571 489.406,111.015C489.406,105.896 487.561,101.881 483.863,98.97C480.163,96.053 475.828,94.602 470.852,94.602C464.878,94.602 460.223,96.443 456.878,100.137C453.537,103.84 451.654,108.388 451.227,113.787L419.235,111.442C419.658,103.627 421.292,96.834 424.141,91.08C426.982,85.32 430.749,80.518 435.442,76.674C440.136,72.835 445.642,69.961 451.972,68.042C458.302,66.121 465.164,65.16 472.555,65.16C479.383,65.16 485.781,66.121 491.752,68.042C497.725,69.961 502.909,72.808 507.32,76.57C511.726,80.338 515.18,85.066 517.668,90.752C520.153,96.442 521.403,103.055 521.403,110.598C521.403,115.427 520.899,119.801 519.909,123.711C518.912,127.623 517.522,131.178 515.749,134.372C513.966,137.568 511.872,140.524 509.458,143.226C507.034,145.92 504.406,148.561 501.562,151.117L455.703,190.579L522.683,190.579L522.683,218.733L417.316,218.733L417.316,184.82Z" style="fill:white;fill-rule:nonzero;"/>
            </g>
        </g>
        <path id="path2939" d="M-570.762,138.895L-570.762,136.695C-570.762,127.455 -572.668,119.609 -576.482,113.155C-580.148,106.702 -586.675,103.475 -596.062,103.475C-605.448,103.475 -612.342,107.875 -616.742,116.675C-621.142,125.475 -623.342,138.235 -623.342,154.955C-623.342,171.529 -620.628,183.922 -615.202,192.135C-609.775,200.349 -601.928,204.455 -591.662,204.455C-581.248,204.455 -568.928,199.249 -554.702,188.835C-551.328,191.182 -548.102,194.482 -545.022,198.735C-541.795,202.842 -539.815,206.729 -539.082,210.395C-545.682,216.995 -554.335,222.569 -565.042,227.115C-575.748,231.515 -586.235,233.715 -596.502,233.715C-606.622,233.715 -615.202,232.249 -622.242,229.315C-629.135,226.235 -634.855,222.275 -639.402,217.435C-643.802,212.449 -647.468,206.509 -650.402,199.615C-655.828,187.002 -658.542,172.409 -658.542,155.835C-658.542,129.582 -652.602,109.855 -640.722,96.655C-628.695,83.455 -613.882,76.855 -596.282,76.855C-578.682,76.855 -564.748,81.182 -554.482,89.835C-544.068,98.489 -538.862,109.269 -538.862,122.175C-538.862,134.495 -545.242,140.655 -558.002,140.655C-562.108,140.655 -566.362,140.069 -570.762,138.895Z" style="fill:rgb(102,102,102);fill-rule:nonzero;"/>
        <path id="path2941" d="M-472.509,102.815C-492.309,102.815 -502.209,120.342 -502.209,155.395C-502.209,190.302 -492.309,207.755 -472.509,207.755C-452.562,207.755 -442.589,190.302 -442.589,155.395C-442.589,120.342 -452.562,102.815 -472.509,102.815ZM-513.649,219.855C-529.342,206.802 -537.189,185.315 -537.189,155.395C-537.189,125.329 -529.342,103.769 -513.649,90.715C-502.356,81.475 -488.569,76.855 -472.289,76.855C-456.009,76.855 -442.222,81.475 -430.929,90.715C-415.236,103.769 -407.389,125.329 -407.389,155.395C-407.389,185.315 -415.236,206.802 -430.929,219.855C-442.222,229.095 -456.009,233.715 -472.289,233.715C-488.569,233.715 -502.356,229.095 -513.649,219.855Z" style="fill:rgb(102,102,102);fill-rule:nonzero;"/>
        <path id="path2943" d="M-399.195,229.975L-387.535,80.375C-381.962,79.349 -374.628,78.835 -365.535,78.835C-356.295,78.835 -348.962,79.349 -343.535,80.375L-329.455,136.255C-325.495,152.535 -322.708,165.662 -321.095,175.635L-319.775,175.635C-318.162,165.662 -315.375,152.535 -311.415,136.255L-297.335,80.375C-291.762,79.349 -284.428,78.835 -275.335,78.835C-266.242,78.835 -258.982,79.349 -253.555,80.375L-241.895,229.975C-246.002,231.149 -251.282,231.735 -257.735,231.735C-264.188,231.735 -269.468,231.369 -273.575,230.635L-277.095,166.835C-278.268,146.595 -278.855,129.949 -278.855,116.895L-280.395,116.895L-303.275,208.195C-307.235,208.929 -312.955,209.295 -320.435,209.295C-327.768,209.295 -333.562,208.929 -337.815,208.195L-360.475,116.895L-362.015,116.895C-362.308,134.789 -362.895,151.435 -363.775,166.835L-367.295,230.635C-371.402,231.369 -376.682,231.735 -383.135,231.735C-389.588,231.735 -394.942,231.149 -399.195,229.975Z" style="fill:rgb(102,102,102);fill-rule:nonzero;"/>
        <path id="path2945" d="M-172.318,78.835C-156.185,78.835 -143.278,83.235 -133.598,92.035C-123.918,100.835 -119.078,113.669 -119.078,130.535C-119.078,147.255 -123.991,160.089 -133.818,169.035C-143.498,177.982 -156.331,182.455 -172.318,182.455L-190.578,182.455L-190.578,230.415C-194.978,231.295 -200.625,231.735 -207.518,231.735C-214.411,231.735 -219.985,231.295 -224.238,230.415L-224.238,81.255L-222.698,79.715C-198.058,79.129 -181.265,78.835 -172.318,78.835ZM-190.578,104.575L-190.578,157.155C-186.325,157.009 -181.265,156.935 -175.398,156.935C-169.531,156.935 -164.911,155.469 -161.538,152.535C-158.018,149.455 -155.818,146.155 -154.938,142.635C-153.911,139.115 -153.398,134.569 -153.398,128.995C-153.398,123.275 -155.011,117.849 -158.238,112.715C-161.318,107.435 -166.451,104.795 -173.638,104.795C-180.825,104.795 -186.471,104.722 -190.578,104.575Z" style="fill:rgb(102,102,102);fill-rule:nonzero;"/>
        <path id="path2947" d="M-1.132,126.355C-1.132,136.182 -3.845,144.689 -9.272,151.875C-14.552,159.062 -20.785,163.975 -27.972,166.615C-20.492,169.255 -14.918,175.929 -11.252,186.635L-4.212,206.215C-1.718,213.255 1.875,218.609 6.568,222.275C4.368,225.209 1.215,227.629 -2.892,229.535C-6.998,231.442 -11.618,232.395 -16.752,232.395C-21.885,232.395 -25.845,230.929 -28.632,227.995C-31.418,225.062 -34.058,220.002 -36.552,212.815L-44.912,188.835C-46.378,184.289 -48.578,180.769 -51.512,178.275C-54.298,175.782 -58.478,174.535 -64.052,174.535L-74.392,174.535L-74.392,230.415C-78.792,231.295 -84.365,231.735 -91.112,231.735C-97.858,231.735 -103.358,231.295 -107.612,230.415L-107.612,81.255L-106.072,79.715C-81.432,79.129 -64.125,78.835 -54.152,78.835C-38.165,78.835 -25.332,82.869 -15.652,90.935C-5.972,98.855 -1.132,110.662 -1.132,126.355ZM-74.392,104.135L-74.392,148.795C-64.712,148.502 -58.845,148.355 -56.792,148.355C-42.565,148.355 -35.452,141.022 -35.452,126.355C-35.452,111.689 -42.565,104.355 -56.792,104.355C-64.125,104.355 -69.992,104.282 -74.392,104.135Z" style="fill:rgb(102,102,102);fill-rule:nonzero;"/>
        <path id="path2949" d="M48.03,187.955L47.81,203.135L47.81,203.355C54.264,203.062 59.617,202.915 63.87,202.915L115.79,202.915C115.79,208.195 115.57,212.155 115.13,214.795C113.077,225.649 105.89,231.075 93.57,231.075L34.17,231.075C28.157,231.075 23.39,229.315 19.87,225.795C16.497,222.275 14.81,217.435 14.81,211.275L14.81,81.695L16.35,80.155L110.29,80.155C111.024,83.529 111.39,87.782 111.39,92.915C111.39,98.049 110.51,103.182 108.75,108.315L47.81,108.315L48.03,123.935L48.03,141.315C51.844,141.169 56.757,141.095 62.77,141.095L97.31,141.095C98.63,144.615 99.29,149.162 99.29,154.735C99.29,160.162 98.63,164.782 97.31,168.595L48.03,168.595L48.03,187.955Z" style="fill:rgb(102,102,102);fill-rule:nonzero;"/>
        <path id="path2951" d="M115.229,217.215C115.669,212.522 117.135,207.902 119.629,203.355C122.122,198.662 125.055,194.922 128.429,192.135C144.415,201.815 159.229,206.655 172.869,206.655C179.175,206.655 183.942,205.189 187.169,202.255C190.542,199.175 192.229,195.509 192.229,191.255C192.229,183.922 187.315,178.055 177.489,173.655L151.529,162.655C130.702,153.562 120.289,140.142 120.289,122.395C120.289,109.049 125.349,98.122 135.469,89.615C145.589,81.109 158.862,76.855 175.289,76.855C191.862,76.855 208.215,81.035 224.349,89.395C223.615,99.515 219.802,107.949 212.909,114.695C197.949,107.509 184.749,103.915 173.309,103.915C167.295,103.915 162.675,105.382 159.449,108.315C156.222,111.102 154.609,114.329 154.609,117.995C154.609,123.862 159.155,128.775 168.249,132.735L194.649,143.735C205.209,148.282 213.349,154.295 219.069,161.775C224.935,169.109 227.869,177.469 227.869,186.855C227.869,200.789 222.882,212.082 212.909,220.735C203.082,229.389 188.929,233.715 170.449,233.715C161.355,233.715 151.822,232.249 141.849,229.315C132.022,226.382 123.149,222.349 115.229,217.215Z" style="fill:rgb(102,102,102);fill-rule:nonzero;"/>
        <path id="path2953" d="M225.41,217.215C225.85,212.522 227.316,207.902 229.81,203.355C232.303,198.662 235.236,194.922 238.61,192.135C254.596,201.815 269.41,206.655 283.05,206.655C289.356,206.655 294.123,205.189 297.35,202.255C300.723,199.175 302.41,195.509 302.41,191.255C302.41,183.922 297.496,178.055 287.67,173.655L261.71,162.655C240.883,153.562 230.47,140.142 230.47,122.395C230.47,109.049 235.53,98.122 245.65,89.615C255.77,81.109 269.043,76.855 285.47,76.855C302.043,76.855 318.396,81.035 334.53,89.395C333.796,99.515 329.983,107.949 323.09,114.695C308.13,107.509 294.93,103.915 283.49,103.915C277.476,103.915 272.856,105.382 269.63,108.315C266.403,111.102 264.79,114.329 264.79,117.995C264.79,123.862 269.336,128.775 278.43,132.735L304.83,143.735C315.39,148.282 323.53,154.295 329.25,161.775C335.116,169.109 338.05,177.469 338.05,186.855C338.05,200.789 333.063,212.082 323.09,220.735C313.263,229.389 299.11,233.715 280.63,233.715C271.536,233.715 262.003,232.249 252.03,229.315C242.203,226.382 233.33,222.349 225.41,217.215Z" style="fill:rgb(102,102,102);fill-rule:nonzero;"/>
        <path id="path2955" d="M661.013,145.935L695.333,145.715L695.773,145.715C710.44,145.715 717.773,152.755 717.773,166.835L717.773,224.475C699.587,230.635 679.933,233.715 658.813,233.715C637.693,233.715 621.633,226.822 610.633,213.035C599.633,199.249 594.133,180.329 594.133,156.275C594.133,143.369 596.04,131.782 599.853,121.515C603.813,111.102 609.093,102.669 615.693,96.215C628.893,83.309 645.027,76.855 664.093,76.855C683.16,76.855 700.907,82.135 717.333,92.695C716.893,97.242 715.133,101.862 712.053,106.555C709.12,111.102 705.82,114.549 702.153,116.895C690.127,108.829 678.027,104.795 665.853,104.795C640.92,104.795 628.453,121.882 628.453,156.055C628.453,190.082 640.92,207.095 665.853,207.095C672.16,207.095 678.907,206.435 686.093,205.115L686.093,189.055C686.093,182.455 686.24,177.395 686.533,173.875L674.433,173.875C668.86,173.875 664.827,172.849 662.333,170.795C659.84,168.595 658.593,164.929 658.593,159.795C658.593,154.662 659.4,150.042 661.013,145.935Z" style="fill:rgb(102,102,102);fill-rule:nonzero;"/>
        <path id="path2957" d="M787.859,102.815C768.059,102.815 758.159,120.342 758.159,155.395C758.159,190.302 768.059,207.755 787.859,207.755C807.806,207.755 817.779,190.302 817.779,155.395C817.779,120.342 807.806,102.815 787.859,102.815ZM746.719,219.855C731.026,206.802 723.179,185.315 723.179,155.395C723.179,125.329 731.026,103.769 746.719,90.715C758.012,81.475 771.799,76.855 788.079,76.855C804.359,76.855 818.146,81.475 829.439,90.715C845.132,103.769 852.979,125.329 852.979,155.395C852.979,185.315 845.132,206.802 829.439,219.855C818.146,229.095 804.359,233.715 788.079,233.715C771.799,233.715 758.012,229.095 746.719,219.855Z" style="fill:rgb(102,102,102);fill-rule:nonzero;"/>
    </g>
</svg>
